<?xml version="1.0" standalone="no"?><!DOCTYPE svg PUBLIC "-//W3C//DTD SVG 1.1//EN" "http://www.w3.org/Graphics/SVG/1.1/DTD/svg11.dtd"><svg t="1569304954006" class="icon" viewBox="0 0 1024 1024" version="1.1" xmlns="http://www.w3.org/2000/svg" p-id="4897" xmlns:xlink="http://www.w3.org/1999/xlink" width="32" height="32"><defs><style type="text/css"></style></defs><path d="M768 768v-85.333333h42.666667V341.333333H213.333333v341.333334h256v85.333333H128V256h768v512h-128z m-149.333333 0c-72.533333-55.466667-106.666667-106.666667-106.666667-153.6 0-55.466667 46.933333-102.4 106.666667-102.4s106.666667 46.933333 106.666666 102.4c0 46.933333-34.133333 98.133333-106.666666 153.6z m0-128c12.8 0 21.333333-8.533333 21.333333-21.333333s-8.533333-21.333333-21.333333-21.333334-21.333333 8.533333-21.333334 21.333334 8.533333 21.333333 21.333334 21.333333z" fill="#e6e6e6" p-id="4898"></path></svg>