<?xml version="1.0" standalone="no"?><!DOCTYPE svg PUBLIC "-//W3C//DTD SVG 1.1//EN" "http://www.w3.org/Graphics/SVG/1.1/DTD/svg11.dtd"><svg t="1569305448984" class="icon" viewBox="0 0 1024 1024" version="1.1" xmlns="http://www.w3.org/2000/svg" p-id="9726" xmlns:xlink="http://www.w3.org/1999/xlink" width="32" height="32"><defs><style type="text/css"></style></defs><path d="M16 510.4h992c9.6 0 16 6.4 16 16v352c0 9.6-6.4 16-16 16H16c-9.6 0-16-6.4-16-16v-352c0-8 6.4-16 16-16zM144 254.4h736c9.6 0 16-6.4 16-16v-32c0-8-6.4-16-14.4-16l-104-59.2c-8-4.8-17.6-1.6-22.4 6.4l-16 27.2c-4.8 8-1.6 17.6 6.4 22.4l8 4.8H144c-9.6 0-16 6.4-16 16v32c0 8 6.4 14.4 16 14.4zM142.4 382.4l104 60.8c8 4.8 17.6 1.6 22.4-6.4l16-27.2c4.8-8 1.6-17.6-6.4-22.4l-6.4-4.8h608c9.6 0 16-6.4 16-16v-32c0-9.6-6.4-16-16-16H144c-9.6 0-16 6.4-16 16v32c0 9.6 6.4 16 14.4 16z" fill="#e6e6e6" p-id="9727"></path><path d="M784 654.4h32c9.6 0 16 6.4 16 16v64c0 9.6-6.4 16-16 16h-32c-9.6 0-16-6.4-16-16v-64c0-8 6.4-16 16-16zM672 654.4h32c9.6 0 16 6.4 16 16v64c0 9.6-6.4 16-16 16h-32c-9.6 0-16-6.4-16-16v-64c0-8 6.4-16 16-16z" fill="#e6e6e6" p-id="9728"></path><path d="M240 702.4m-48 0a48 48 0 1 0 96 0 48 48 0 1 0-96 0Z" fill="#e6e6e6" p-id="9729"></path><path d="M400 702.4m-48 0a48 48 0 1 0 96 0 48 48 0 1 0-96 0Z" fill="#e6e6e6" p-id="9730"></path></svg>