<?xml version="1.0" standalone="no"?><!DOCTYPE svg PUBLIC "-//W3C//DTD SVG 1.1//EN" "http://www.w3.org/Graphics/SVG/1.1/DTD/svg11.dtd"><svg t="1573454916878" class="icon" viewBox="0 0 1024 1024" version="1.1" xmlns="http://www.w3.org/2000/svg" p-id="2924" xmlns:xlink="http://www.w3.org/1999/xlink" width="64" height="64"><defs><style type="text/css"></style></defs><path d="M514.56 302.592c49.664 0 101.888 11.776 155.136 34.816 43.52 18.944 88.064 46.08 131.584 79.872 45.568 35.328 80.896 70.656 102.4 93.696-20.992 22.528-55.808 57.344-100.864 92.16-44.032 34.304-88.576 60.928-132.096 80.384-53.248 23.552-105.984 35.328-156.16 35.328-49.664 0-101.888-11.776-155.136-34.816-43.52-18.944-88.064-46.08-131.584-79.872-45.568-35.328-80.896-70.656-102.4-93.696 20.992-22.528 55.808-57.344 100.864-92.16C269.824 384.512 314.368 357.376 358.4 337.92c53.248-23.552 105.984-35.328 156.16-35.328z m0-40.448C269.824 262.144 71.68 510.976 71.68 510.976s198.144 248.832 442.88 248.832S957.44 510.976 957.44 510.976s-198.144-248.832-442.88-248.832m-1.024 153.6c49.664 0 90.112 40.448 90.112 90.112 0 49.664-40.448 90.112-90.112 90.112s-90.112-40.448-90.112-90.112c0-49.664 40.448-90.112 90.112-90.112z m0-40.96c-72.192 0-131.072 58.368-131.072 131.072 0 72.192 58.368 131.072 131.072 131.072 72.192 0 131.072-58.368 131.072-131.072s-58.368-131.072-131.072-131.072" p-id="2925" fill="#8E95AE"></path></svg>