<?xml version="1.0" standalone="no"?><!DOCTYPE svg PUBLIC "-//W3C//DTD SVG 1.1//EN" "http://www.w3.org/Graphics/SVG/1.1/DTD/svg11.dtd"><svg t="1569306427416" class="icon" viewBox="0 0 1024 1024" version="1.1" xmlns="http://www.w3.org/2000/svg" p-id="36394" xmlns:xlink="http://www.w3.org/1999/xlink" width="32" height="32"><defs><style type="text/css"></style></defs><path d="M99.84 842.24c-4.608 1.536-9.216 4.096-13.312 7.68-12.288 12.288-12.288 32.768 0 44.544l11.776 11.776 108.032 108.032c6.144 6.144 14.336 9.216 22.528 9.216h2.56c7.168-0.512 14.336-4.096 19.456-9.216 12.288-12.288 12.288-32.768 0-44.544l-19.456-19.456-43.52-43.52-56.32-56.832c-3.072-4.096-7.68-6.656-13.312-7.68h-18.432zM786.944 13.824c-4.608 1.536-9.216 4.096-13.312 7.68-12.288 12.288-12.288 32.768 0 44.544l11.776 11.776 108.032 108.032c6.144 6.144 14.336 9.216 22.528 9.216h2.56c7.168-0.512 14.336-4.096 19.456-9.216 12.288-12.288 12.288-32.768 0-44.544l-19.456-19.456-43.52-43.52-56.832-56.832c-3.072-4.096-7.68-6.656-13.312-7.68h-17.92zM523.776 660.48C443.904 660.48 378.88 595.456 378.88 515.584c0-79.872 65.024-144.896 144.896-144.896s144.896 65.024 144.896 144.896c0 79.872-65.024 144.896-144.896 144.896z m0-238.592c-51.712 0-93.696 41.984-93.696 93.696s41.984 93.696 93.696 93.696c51.712 0 93.696-41.984 93.696-93.696s-41.984-93.696-93.696-93.696z" p-id="36395" fill="#e6e6e6"></path><path d="M522.24 402.944c-14.336 0-25.6-11.264-25.6-25.6v-43.52c0-14.336 11.264-25.6 25.6-25.6s25.6 11.264 25.6 25.6v43.52c0 14.336-11.264 25.6-25.6 25.6zM424.96 443.904c-6.656 0-13.312-2.56-18.432-7.68l-30.208-30.72c-9.728-10.24-9.728-26.112 0.512-36.352 10.24-9.728 26.112-9.728 36.352 0.512l30.208 30.72c9.728 10.24 9.728 26.112-0.512 36.352-5.12 4.608-11.264 7.168-17.92 7.168zM385.536 542.72h-43.52c-14.336 0-25.6-11.264-25.6-25.6s11.264-25.6 25.6-25.6h43.52c14.336 0 25.6 11.264 25.6 25.6s-11.264 25.6-25.6 25.6zM395.776 670.208c-6.656 0-13.312-2.56-17.92-7.68-10.24-10.24-10.24-26.112 0-36.352l30.72-30.72c10.24-10.24 26.112-10.24 36.352 0s10.24 26.112 0 36.352l-30.72 30.72c-5.12 5.12-11.776 7.68-18.432 7.68zM525.312 722.944c-14.336 0-25.6-11.264-25.6-25.6v-43.52c0-14.336 11.264-25.6 25.6-25.6s25.6 11.264 25.6 25.6v43.52c0 14.336-11.264 25.6-25.6 25.6zM652.8 669.184c-6.656 0-13.312-2.56-17.92-7.68l-30.72-30.72c-10.24-10.24-10.24-26.112 0-36.352s26.112-10.24 36.352 0l30.72 30.72c10.24 10.24 10.24 26.112 0 36.352-5.12 5.12-11.776 7.68-18.432 7.68zM705.536 539.648h-43.52c-14.336 0-25.6-11.264-25.6-25.6s11.264-25.6 25.6-25.6h43.52c14.336 0 25.6 11.264 25.6 25.6s-11.264 25.6-25.6 25.6zM621.056 442.88c-6.656 0-13.312-2.56-17.92-7.68-10.24-10.24-10.24-26.112 0-36.352l30.72-30.72c10.24-10.24 26.112-10.24 36.352 0s10.24 26.112 0 36.352l-30.72 30.72c-5.12 5.12-11.776 7.68-18.432 7.68z" p-id="36396" fill="#e6e6e6"></path><path d="M985.6 893.44H117.248c-14.336 0-25.6-11.264-25.6-25.6s11.264-25.6 25.6-25.6h842.752V317.44c0-14.336 11.264-25.6 25.6-25.6s25.6 11.264 25.6 25.6v550.4c0 14.336-11.264 25.6-25.6 25.6zM40.96 752.64c-14.336 0-25.6-11.264-25.6-25.6V171.008c0-14.336 11.264-25.6 25.6-25.6h866.304c14.336 0 25.6 11.264 25.6 25.6s-11.264 25.6-25.6 25.6H66.56V727.04c0 14.336-11.264 25.6-25.6 25.6z" p-id="36397" fill="#e6e6e6"></path></svg>