<?xml version="1.0" standalone="no"?><!DOCTYPE svg PUBLIC "-//W3C//DTD SVG 1.1//EN" "http://www.w3.org/Graphics/SVG/1.1/DTD/svg11.dtd"><svg t="1569305501568" class="icon" viewBox="0 0 1024 1024" version="1.1" xmlns="http://www.w3.org/2000/svg" p-id="19763" xmlns:xlink="http://www.w3.org/1999/xlink" width="32" height="32"><defs><style type="text/css"></style></defs><path d="M774.780427 723.467249 477.650169 723.467249c-11.895935-45.927005-53.253878-80.007195-102.902648-80.007195-49.649793 0-91.004667 34.08019-102.900601 80.007195l-30.443359 0c-14.728446 0-26.668383 11.93482-26.668383 26.669406 0 14.732539 11.939937 26.669406 26.668383 26.669406l30.443359 0c11.895935 45.925982 53.250808 80.006172 102.900601 80.006172 49.65184 0 91.006713-34.08019 102.902648-80.006172l297.129234 0c14.728446 0 26.668383-11.935843 26.668383-26.669406C801.447786 735.403093 789.50785 723.467249 774.780427 723.467249zM374.748544 814.139342c-35.347043 0-64.005756-28.652574-64.005756-64.002686s28.65769-64.002686 64.005756-64.002686c35.350113 0 64.007803 28.652574 64.007803 64.002686S410.098657 814.139342 374.748544 814.139342zM828.117193 83.416851l-640.047328 0c-58.915831 0-106.677625 47.759747-106.677625 106.677625l0 640.047328c0 58.913784 47.761794 106.675578 106.677625 106.675578l640.047328 0c58.918901 0 106.674555-47.761794 106.674555-106.675578l0-640.047328C934.791747 131.176598 887.036094 83.416851 828.117193 83.416851zM881.454982 830.142827c0 29.456892-23.880897 53.337789-53.337789 53.337789l-640.047328 0c-29.459962 0-53.337789-23.880897-53.337789-53.337789l0-640.047328c0-29.462009 23.877827-53.344952 53.337789-53.344952l640.047328 0c29.456892 0 53.337789 23.882943 53.337789 53.344952L881.454982 830.142827zM774.780427 296.764937l-297.127188 0c-11.895935-45.929052-53.255924-80.004125-102.904695-80.004125-49.649793 0-91.006713 34.075073-102.902648 80.004125l-30.441313 0c-14.728446 0-26.668383 11.943007-26.668383 26.668383 0 14.731516 11.939937 26.671453 26.668383 26.671453l30.441313 0c11.897981 45.931099 53.253878 80.006172 102.902648 80.006172 49.64877 0 91.006713-34.075073 102.904695-80.006172l297.127188 0c14.728446 0 26.668383-11.939937 26.668383-26.671453C801.447786 308.707944 789.50785 296.764937 774.780427 296.764937zM374.748544 387.439076c-35.347043 0-64.002686-28.655643-64.002686-64.005756 0-35.347043 28.655643-64.002686 64.002686-64.002686 35.350113 0 64.005756 28.655643 64.005756 64.002686C438.754301 358.783433 410.098657 387.439076 374.748544 387.439076zM774.780427 510.117117l-57.108672 0c-11.900028-45.931099-53.257971-80.006172-102.905718-80.006172-49.646724 0-91.004667 34.075073-102.900601 80.006172L241.404584 510.117117c-14.728446 0-26.668383 11.93482-26.668383 26.669406 0 14.72333 11.939937 26.669406 26.668383 26.669406l270.457782 0c11.900028 45.925982 53.257971 80.006172 102.904695 80.006172 49.65184 0 91.010807-34.08019 102.905718-80.006172l57.108672 0c14.728446 0 26.668383-11.946077 26.668383-26.669406C801.447786 522.051937 789.50785 510.117117 774.780427 510.117117zM614.76706 600.789209c-35.350113 0-64.002686-28.652574-64.002686-64.002686s28.652574-64.002686 64.002686-64.002686 64.007803 28.652574 64.007803 64.002686S650.117173 600.789209 614.76706 600.789209z" p-id="19764" fill="#e6e6e6"></path></svg>