<?xml version="1.0" standalone="no"?><!DOCTYPE svg PUBLIC "-//W3C//DTD SVG 1.1//EN" "http://www.w3.org/Graphics/SVG/1.1/DTD/svg11.dtd"><svg t="1569306025334" class="icon" viewBox="0 0 1024 1024" version="1.1" xmlns="http://www.w3.org/2000/svg" p-id="31179" xmlns:xlink="http://www.w3.org/1999/xlink" width="32" height="32"><defs><style type="text/css"></style></defs><path d="M512 1020c-136 0-263.2-52.8-359.2-148.8-6.4-6.4-6.4-16 0-22.4 6.4-6.4 16-6.4 22.4 0 89.6 90.4 209.6 140 336.8 140 262.4 0 476-213.6 476-476S774.4 36.8 512 36.8 36 249.6 36 512c0 88 24 173.6 69.6 248 4.8 7.2 2.4 17.6-5.6 22.4-7.2 4.8-17.6 2.4-22.4-5.6C29.6 697.6 4 605.6 4 512 4 232 232 4 512 4S1020 232 1020 512 792 1020 512 1020z" p-id="31180" fill="#e6e6e6"></path><path d="M512 1012c-103.2 0-195.2-136-228-338.4-0.8-4 2.4-8.8 6.4-8.8 4.8-0.8 8.8 2.4 8.8 6.4 32 194.4 116.8 324.8 212 324.8C635.2 996 736 779.2 736 512S636 28 512 28c-83.2 0-162.4 104.8-200.8 266.4l-5.6 18.4c-1.6 4-5.6 6.4-9.6 5.6-4-1.6-6.4-5.6-5.6-9.6l4.8-18.4C336.8 118.4 419.2 12 512 12c132.8 0 240.8 224 240.8 500S644.8 1012 512 1012zM80.8 520H20c-4.8 0-8-3.2-8-8s3.2-8 8-8h60.8c4.8 0 8 3.2 8 8s-4 8-8 8z" p-id="31181" fill="#e6e6e6"></path><path d="M1004 520H445.6c-4.8 0-8-3.2-8-8s3.2-8 8-8h558.4c4.8 0 8 3.2 8 8s-3.2 8-8 8zM916.8 244.8H107.2c-4.8 0-8-3.2-8-8s3.2-8 8-8h808.8c4.8 0 8 3.2 8 8 0.8 4.8-3.2 8-7.2 8zM916.8 795.2H194.4c-4.8 0-8-3.2-8-8s3.2-8 8-8h722.4c4.8 0 8 3.2 8 8 0 4-4 8-8 8z" p-id="31182" fill="#e6e6e6"></path><path d="M512 1012c-4.8 0-8-3.2-8-8V20c0-4.8 3.2-8 8-8s8 3.2 8 8v984c0 4.8-3.2 8-8 8zM263.2 682.4c-25.6 0-50.4-4.8-74.4-15.2-47.2-20-84-56.8-103.2-104-19.2-47.2-19.2-99.2 0.8-146.4 35.2-84 124.8-132 213.6-114.4 12.8 2.4 24.8 6.4 36.8 11.2 97.6 40.8 144 153.6 103.2 251.2-25.6 61.6-80.8 104.8-147.2 115.2-9.6 2.4-19.2 2.4-29.6 2.4z m0-367.2c-69.6 0-134.4 41.6-162.4 108-18.4 43.2-18.4 91.2-0.8 134.4s51.2 77.6 94.4 95.2c30.4 12.8 63.2 16.8 95.2 11.2 60.8-9.6 111.2-49.6 134.4-105.6 37.6-89.6-4.8-192.8-94.4-230.4-11.2-4.8-22.4-8-34.4-10.4-9.6-1.6-20.8-2.4-32-2.4z" p-id="31183" fill="#e6e6e6"></path><path d="M83.2 989.6c-8.8 0-17.6-1.6-26.4-5.6-16-7.2-28.8-19.2-36-36-7.2-16-7.2-34.4 0-50.4l109.6-262.4c3.2-8 12.8-12 20.8-8.8 8 3.2 12 12.8 8.8 20.8L50.4 910.4c-3.2 8-3.2 16.8 0 25.6s10.4 15.2 19.2 18.4c17.6 7.2 37.6-0.8 44.8-17.6L224 675.2c3.2-8 12.8-12 20.8-8.8 8 3.2 12 12.8 8.8 20.8L144 949.6c-11.2 24.8-35.2 40-60.8 40z" p-id="31184" fill="#e6e6e6"></path></svg>