<?xml version="1.0" standalone="no"?><!DOCTYPE svg PUBLIC "-//W3C//DTD SVG 1.1//EN" "http://www.w3.org/Graphics/SVG/1.1/DTD/svg11.dtd"><svg t="1569305364059" class="icon" viewBox="0 0 1024 1024" version="1.1" xmlns="http://www.w3.org/2000/svg" p-id="8278" xmlns:xlink="http://www.w3.org/1999/xlink" width="32" height="32"><defs><style type="text/css"></style></defs><path d="M736.9 343.9c-4.4-6.1-11.7-9.1-19.2-8l-153.4 24.9L709.8 91.1c3.3-6.1 3.1-13.5-0.4-19.5-3.6-6-10-9.6-17-9.6H512c-10.9 0-19.7 8.8-19.7 19.7s8.8 19.7 19.7 19.7h147.3l-148.9 276c-3.6 6.6-3.1 14.7 1.3 20.8 4.3 6.1 11.7 9.2 19.2 8.1l153.8-25L498.8 732c-2.9 5.4-3.1 11.9-0.5 17.4 2.6 5.6 7.6 9.7 13.6 11l22.6 5.2-128.4 126.8 9.7-180.1 27.2 19.5c5 3.6 11.4 4.6 17.3 2.8 5.9-1.8 10.6-6.3 12.7-12.1l73.3-199.8c2.4-6.7 1.1-14.1-3.4-19.5-4.6-5.4-11.9-7.9-18.7-6.7l-188 35 129.4-295.1c4.4-10-0.2-21.6-10.1-26-10-4.5-21.6 0.1-26 10.1L285.1 549.8c-3 6.7-1.9 14.5 2.6 20.2 4.6 5.7 12.1 8.4 19.1 7.1l190.6-35.4L445 684.6l-35.4-25.4c-5.8-4.2-13.5-4.8-20-1.7-6.5 3.1-10.8 9.5-11.2 16.7l-14.4 267c-0.5 8.2 4.2 15.7 11.6 19.1 2.6 1.2 5.4 1.7 8.1 1.7 5.1 0 10.1-2 13.9-5.7l190.3-187.8c5.1-5 7.1-12.5 5.1-19.4-2-6.9-7.5-12.2-14.6-13.9l-32.6-7.4 192.6-363.2c3.4-6.6 2.8-14.7-1.5-20.7z" fill="#e6e6e6" p-id="8279"></path></svg>