<?xml version="1.0" standalone="no"?><!DOCTYPE svg PUBLIC "-//W3C//DTD SVG 1.1//EN" "http://www.w3.org/Graphics/SVG/1.1/DTD/svg11.dtd"><svg t="1569305175393" class="icon" viewBox="0 0 1024 1024" version="1.1" xmlns="http://www.w3.org/2000/svg" p-id="6664" xmlns:xlink="http://www.w3.org/1999/xlink" width="32" height="32"><defs><style type="text/css"></style></defs><path d="M746.666667 256H170.666667c-36.266667 0-64 27.733333-64 64v490.666667c0 36.266667 27.733333 64 64 64h576c36.266667 0 64-27.733333 64-64V320c0-36.266667-27.733333-64-64-64zM170.666667 298.666667h576c12.8 0 21.333333 8.533333 21.333333 21.333333v106.666667H149.333333v-106.666667c0-12.8 8.533333-21.333333 21.333334-21.333333z m576 533.333333H170.666667c-12.8 0-21.333333-8.533333-21.333334-21.333333V469.333333h618.666667v341.333334c0 12.8-8.533333 21.333333-21.333333 21.333333z" p-id="6665" fill="#e6e6e6"></path><path d="M853.333333 149.333333H320c-12.8 0-21.333333 8.533333-21.333333 21.333334s8.533333 21.333333 21.333333 21.333333h533.333333c12.8 0 21.333333 8.533333 21.333334 21.333333v533.333334c0 12.8 8.533333 21.333333 21.333333 21.333333s21.333333-8.533333 21.333333-21.333333V213.333333c0-36.266667-27.733333-64-64-64z" p-id="6666" fill="#e6e6e6"></path><path d="M234.666667 384h341.333333c12.8 0 21.333333-8.533333 21.333333-21.333333s-8.533333-21.333333-21.333333-21.333334H234.666667c-12.8 0-21.333333 8.533333-21.333334 21.333334s8.533333 21.333333 21.333334 21.333333z" p-id="6667" fill="#e6e6e6"></path><path d="M682.666667 362.666667m-21.333334 0a21.333333 21.333333 0 1 0 42.666667 0 21.333333 21.333333 0 1 0-42.666667 0Z" p-id="6668" fill="#e6e6e6"></path></svg>