<?xml version="1.0" standalone="no"?><!DOCTYPE svg PUBLIC "-//W3C//DTD SVG 1.1//EN" "http://www.w3.org/Graphics/SVG/1.1/DTD/svg11.dtd"><svg t="1569306201305" class="icon" viewBox="0 0 1024 1024" version="1.1" xmlns="http://www.w3.org/2000/svg" p-id="33699" xmlns:xlink="http://www.w3.org/1999/xlink" width="32" height="32"><defs><style type="text/css"></style></defs><path d="M727.466667 346.666667H531.2c-5.333333 0-11.733333 5.333333-11.733333 11.733333 0 5.333333 5.333333 11.733333 11.733333 11.733333h196.266667c5.333333 0 11.733333-5.333333 11.733333-11.733333 0-6.4-6.4-11.733333-11.733333-11.733333z m11.733333 84.266666c0-5.333333-5.333333-11.733333-11.733333-11.733333H531.2c-5.333333 0-11.733333 5.333333-11.733333 11.733333 0 5.333333 5.333333 11.733333 11.733333 11.733334h196.266667c5.333333 0 11.733333-5.333333 11.733333-11.733334z m-208 62.933334c-5.333333 0-11.733333 5.333333-11.733333 11.733333 0 5.333333 5.333333 11.733333 11.733333 11.733333h117.333333c5.333333 0 11.733333-5.333333 11.733334-11.733333 0-5.333333-5.333333-11.733333-11.733334-11.733333h-117.333333z m-309.333333-187.733334c-2.133333-4.266667-5.333333-5.333333-11.733334-5.333333-4.266667 0-7.466667 2.133333-11.733333 4.266667-24.533333 32-26.666667 75.733333-5.333333 107.733333 19.2 29.866667 54.4 46.933333 88.533333 43.733333l96 158.933334c4.266667 7.466667 11.733333 11.733333 19.2 12.8h8.533333c5.333333 0 11.733333-2.133333 17.066667-4.266667l24.533333-14.933333c7.466667-4.266667 11.733333-11.733333 12.8-19.2 2.133333-7.466667 0-17.066667-4.266666-22.4l-102.4-154.666667c19.2-29.866667 19.2-68.266667 0-98.133333-21.333333-32-58.666667-49.066667-96-41.6-4.266667 0-7.466667 4.266667-9.6 7.466666-4.266667 2.133333-4.266667 7.466667 0 11.733334l29.866666 46.933333-26.666666 17.066667-28.8-50.133334z m562.133333 418.133334c-2.133333 2.133333-5.333333 4.266667-8.533333 6.4-18.133333 11.733333-40.533333 11.733333-58.666667 0-3.2-2.133333-5.333333-4.266667-8.533333-6.4-4.266667-4.266667-11.733333-4.266667-17.066667 0-2.133333 2.133333-3.2 5.333333-3.2 8.533333 0 3.2 1.066667 6.4 3.2 8.533333 3.2 3.2 7.466667 6.4 11.733333 9.6 4.266667 3.2 8.533333 5.333333 13.866667 7.466667 23.466667 8.533333 49.066667 7.466667 71.466667-7.466667 4.266667-3.2 8.533333-6.4 11.733333-9.6 4.266667-4.266667 4.266667-11.733333 0-17.066666-4.266667-4.266667-11.733333-4.266667-16 0z m145.066667 116.266666L856.533333 768c16-22.4 25.6-49.066667 25.6-78.933333 0-72.533333-59.733333-132.266667-132.266666-132.266667S618.666667 616.533333 618.666667 689.066667 677.333333 821.333333 750.933333 821.333333c29.866667 0 56.533333-9.6 78.933334-25.6l72.533333 72.533334c6.4 6.4 16 6.4 22.4 0l5.333333-5.333334c5.333333-6.4 5.333333-17.066667-1.066666-22.4z m-178.133334-58.666666c-51.2 0-92.8-41.6-92.8-92.8s41.6-92.8 92.8-92.8 92.8 41.6 92.8 92.8-41.6 92.8-92.8 92.8z m-24.533333-142.933334l9.6-3.2c3.2-1.066667 6.4-1.066667 10.666667-1.066666 3.2 0 6.4 0 9.6 1.066666 3.2 1.066667 6.4 1.066667 9.6 3.2 6.4 2.133333 12.8-1.066667 16-6.4 1.066667-3.2 1.066667-6.4 0-9.6-1.066667-3.2-3.2-5.333333-6.4-6.4-4.266667-2.133333-9.6-3.2-13.866667-4.266666-5.333333-1.066667-9.6-1.066667-14.933333-1.066667-5.333333 0-9.6 0-14.933334 1.066667-4.266667 1.066667-9.6 2.133333-13.866666 4.266666-3.2 1.066667-5.333333 3.2-6.4 6.4-1.066667 3.2-1.066667 6.4 0 9.6 2.133333 5.333333 9.6 8.533333 14.933333 6.4z m-541.866667 60.8c-22.4 0-39.466667-19.2-39.466666-39.466666v-416c0-22.4 19.2-39.466667 39.466666-39.466667h586.666667c22.4 0 39.466667 19.2 39.466667 39.466667v296.533333c19.2 7.466667 36.266667 19.2 51.2 33.066667V244.266667c2.133333-51.2-39.466667-92.8-92.8-92.8h-586.666667c-51.2 0-92.8 41.6-92.8 92.8v416c0 51.2 41.6 92.8 92.8 92.8h420.266667c-7.466667-16-11.733333-34.133333-12.8-53.333334h-405.333334z" p-id="33700" fill="#e6e6e6"></path></svg>