<?xml version="1.0" standalone="no"?><!DOCTYPE svg PUBLIC "-//W3C//DTD SVG 1.1//EN" "http://www.w3.org/Graphics/SVG/1.1/DTD/svg11.dtd"><svg t="1569305588092" class="icon" viewBox="0 0 1024 1024" version="1.1" xmlns="http://www.w3.org/2000/svg" p-id="20905" xmlns:xlink="http://www.w3.org/1999/xlink" width="32" height="32"><defs><style type="text/css"></style></defs><path d="M767.222086 512.537331c-6.755022 0.076762-13.433283 1.304948-19.804498 3.684558L658.143825 382.272864c7.062069-10.976912 10.823388-23.71934 10.823389-36.768816 0-37.997001-30.781409-68.778411-68.778411-68.778411-37.997001 0-68.778411 30.781409-68.778411 68.778411 0 17.348126 6.678261 33.084258 17.271364 45.212594L458.717139 555.6006c-8.290255-2.37961-16.887556-3.684558-25.561619-3.838081-19.497451 0-37.689955 5.910645-52.965518 15.736132l-72.07916-86.433584c4.375412-8.290255 7.138831-17.501649 7.13883-27.557421 0-26.022189-17.041079-48.897151-41.988605-56.41979-24.870765-7.522639-51.737331 2.226087-66.168516 23.872864-14.354423 21.646777-12.81919 50.202099 3.761319 70.236881 16.58051 20.034783 44.368216 26.789805 68.317841 16.657272l72.616492 87.124437c-11.053673 16.273463-16.964318 35.463868-16.964318 55.114843 0 54.193703 44.061169 98.254873 98.254873 98.254872s98.254873-44.061169 98.254872-98.254872c0-31.165217-14.891754-58.722639-37.613193-76.684858l88.275862-161.813493c5.833883 1.611994 11.821289 2.686657 18.115742 2.686657 9.97901 0 19.42069-2.226087 28.017991-6.064168l88.65967 133.027886c-5.603598 9.134633-8.597301 19.574213-8.597301 30.244078 0 32.546927 26.405997 58.952924 58.952924 58.952923s58.952924-26.405997 58.952923-58.952923-26.329235-58.952924-58.876162-58.952924z m-334.066566 196.509745c-32.470165 0-58.952924-26.482759-58.952924-58.952923s26.482759-58.952924 58.952924-58.952924 58.952924 26.482759 58.952923 58.952924-26.482759 58.952924-58.952923 58.952923z m0 0" p-id="20906" fill="#e6e6e6"></path></svg>